<svg width="16" height="16" viewBox="0 0 16 16" fill="none" xmlns="http://www.w3.org/2000/svg">
<path fill-rule="evenodd" clip-rule="evenodd" d="M7.33331 1.33334C4.01961 1.33334 1.33331 4.01964 1.33331 7.33334C1.33331 10.6471 4.01961 13.3333 7.33331 13.3333C8.74998 13.3333 10.052 12.8423 11.0784 12.0213L14 14.9428L14.9428 14L12.0212 11.0785C12.8423 10.052 13.3333 8.75001 13.3333 7.33334C13.3333 4.01964 10.647 1.33334 7.33331 1.33334ZM2.66665 7.33334C2.66665 4.75602 4.75599 2.66668 7.33331 2.66668C9.91065 2.66668 12 4.75602 12 7.33334C12 9.91068 9.91065 12 7.33331 12C4.75599 12 2.66665 9.91068 2.66665 7.33334Z" fill="#BBBBBB"/>
</svg>
