<svg width="24" height="24" viewBox="0 0 24 24" fill="none" xmlns="http://www.w3.org/2000/svg">
<path d="M7.74991 4C7.74991 3.58579 7.41412 3.25 6.99991 3.25C6.5857 3.25 6.24991 3.58579 6.24991 4V5.81643C4.75684 6.02751 3.57729 7.20845 3.37761 8.71484L3.29106 9.36779C3.27638 9.47849 3.26235 9.58926 3.24896 9.70008C3.21345 9.99405 3.44505 10.25 3.74116 10.25H20.2586C20.5547 10.25 20.7863 9.99405 20.7508 9.70008C20.7374 9.58926 20.7234 9.47849 20.7087 9.36779L20.6221 8.71484C20.4225 7.20847 19.2429 6.02754 17.7499 5.81644V4C17.7499 3.58579 17.4141 3.25 16.9999 3.25C16.5857 3.25 16.2499 3.58579 16.2499 4V5.66763C13.4222 5.4158 10.5776 5.4158 7.74991 5.66763V4Z" fill="#FEA30B"/>
<path d="M20.9447 12.2256C20.9359 11.9591 20.7157 11.75 20.4492 11.75H3.55093C3.28435 11.75 3.06419 11.9591 3.05543 12.2256C2.99604 14.0332 3.10584 15.8446 3.38457 17.6359C3.59558 18.9919 4.69724 20.0335 6.06298 20.1681L7.25599 20.2858C10.4111 20.5969 13.5891 20.5969 16.7441 20.2858L17.9371 20.1681C19.3029 20.0335 20.4045 18.9919 20.6155 17.6359C20.8943 15.8446 21.0041 14.0332 20.9447 12.2256Z" fill="#FEA30B"/>
</svg>
