<svg width="24" height="24" viewBox="0 0 24 24" fill="none" xmlns="http://www.w3.org/2000/svg">
<path d="M10.5998 11.3761C10.5998 12.1761 10.1998 12.9761 9.69985 13.4761C8.89985 14.2761 8.19985 15.2761 7.79985 16.3761C7.29985 17.5761 7.39985 18.9761 8.19985 20.0761C8.29985 20.1761 8.49985 20.4761 8.49985 20.4761H3.49985C2.99985 20.4761 2.59985 20.3761 2.19985 20.0761C1.19985 19.4761 0.899847 18.2761 1.29985 17.3761C1.79985 15.8761 2.99985 14.7761 4.39985 14.0761C3.49985 13.2761 2.99985 11.9761 3.29985 10.5761C3.59985 9.1761 4.69985 7.9761 6.19985 7.6761C7.89985 7.3761 9.39985 8.1761 10.1998 9.5761C10.3998 10.0761 10.5998 10.6761 10.5998 11.3761Z" fill="white"/>
<path d="M22.7998 16.9761C21.9998 14.9761 20.3998 13.5761 18.4998 12.8761C19.5998 12.0761 20.2998 10.7761 20.2998 9.37607C20.2998 6.87607 18.3998 4.97607 15.9998 4.97607C13.5998 4.97607 11.6998 6.87607 11.6998 9.27607C11.6998 10.6761 12.3998 11.9761 13.4998 12.7761C11.4998 13.4761 9.89973 14.9761 9.09973 16.9761C8.79973 17.7761 8.89973 18.5761 9.29973 19.2761C9.79973 19.9761 10.5998 20.4761 11.4998 20.4761H20.3998C21.2998 20.4761 22.0998 20.0761 22.5998 19.2761C22.9998 18.5761 23.0998 17.6761 22.7998 16.9761Z" fill="white"/>
</svg>
