<svg width="24" height="24" viewBox="0 0 24 24" fill="none" xmlns="http://www.w3.org/2000/svg">
<path d="M15.86 4.39V19.39C15.86 21.06 17 22 18.25 22C19.39 22 20.64 21.21 20.64 19.39V4.5C20.64 2.96 19.5 2 18.25 2C17 2 15.86 3.06 15.86 4.39ZM9.60999 12V19.39C9.60999 21.07 10.77 22 12 22C13.14 22 14.39 21.21 14.39 19.39V12.11C14.39 10.57 13.25 9.61 12 9.61C10.75 9.61 9.60999 10.67 9.60999 12ZM5.74999 17.23C7.06999 17.23 8.13999 18.3 8.13999 19.61C8.13999 20.93 7.06999 22 5.74999 22C4.42999 22 3.35999 20.93 3.35999 19.61C3.35999 18.3 4.42999 17.23 5.74999 17.23Z" fill="#DDDADA"/>
</svg>
