<svg width="10" height="10" viewBox="0 0 10 10" fill="none" xmlns="http://www.w3.org/2000/svg">
<path d="M4.99998 4.79168C4.72371 4.79168 4.45876 4.68193 4.26341 4.48658C4.06806 4.29123 3.95831 4.02628 3.95831 3.75001C3.95831 3.47374 4.06806 3.20879 4.26341 3.01344C4.45876 2.81809 4.72371 2.70834 4.99998 2.70834C5.27625 2.70834 5.5412 2.81809 5.73655 3.01344C5.9319 3.20879 6.04165 3.47374 6.04165 3.75001C6.04165 3.8868 6.0147 4.02226 5.96235 4.14864C5.91001 4.27502 5.83328 4.38985 5.73655 4.48658C5.63982 4.58331 5.52499 4.66004 5.39861 4.71238C5.27223 4.76473 5.13677 4.79168 4.99998 4.79168ZM4.99998 0.833344C4.22643 0.833344 3.48457 1.14063 2.93758 1.68762C2.3906 2.2346 2.08331 2.97646 2.08331 3.75001C2.08331 5.93751 4.99998 9.16668 4.99998 9.16668C4.99998 9.16668 7.91665 5.93751 7.91665 3.75001C7.91665 2.97646 7.60936 2.2346 7.06237 1.68762C6.51539 1.14063 5.77353 0.833344 4.99998 0.833344Z" fill="#63656A"/>
</svg>
