<svg width="10" height="10" viewBox="0 0 10 10" fill="none" xmlns="http://www.w3.org/2000/svg">
<path d="M3.22916 1.66667C3.22916 1.49408 3.08925 1.35417 2.91666 1.35417C2.74407 1.35417 2.60416 1.49408 2.60416 1.66667V2.42352C1.98205 2.51147 1.49057 3.00353 1.40737 3.63119L1.37131 3.90325C1.36519 3.94938 1.35934 3.99553 1.35377 4.0417C1.33897 4.16419 1.43547 4.27084 1.55885 4.27084H8.44112C8.56449 4.27084 8.66099 4.16419 8.6462 4.0417C8.64062 3.99553 8.63479 3.94938 8.62866 3.90325L8.59258 3.63119C8.50941 3.00353 8.01791 2.51148 7.39583 2.42352V1.66667C7.39583 1.49408 7.25591 1.35417 7.08333 1.35417C6.91074 1.35417 6.77083 1.49408 6.77083 1.66667V2.36152C5.59262 2.25659 4.40737 2.25659 3.22916 2.36152V1.66667Z" fill="#63656A"/>
<path d="M8.72692 5.094C8.72325 4.98295 8.6315 4.89583 8.52046 4.89583H1.47953C1.36845 4.89583 1.27672 4.98295 1.27307 5.094C1.24833 5.84716 1.29408 6.60191 1.41021 7.34829C1.49813 7.91329 1.95716 8.34729 2.52622 8.40337L3.0233 8.45241C4.33792 8.58204 5.66208 8.58204 6.97667 8.45241L7.47375 8.40337C8.04283 8.34729 8.50183 7.91329 8.58975 7.34829C8.70592 6.60191 8.75167 5.84716 8.72692 5.094Z" fill="#63656A"/>
</svg>
