<svg width="113" height="124" viewBox="0 0 113 124" fill="none" xmlns="http://www.w3.org/2000/svg">
<path d="M110.642 1.13821C108.418 -0.529599 105.083 -0.529599 102.859 2.25009L86.7346 22.2637C77.8387 16.1485 67.2751 12.8129 55.5993 12.8129C25.0196 12.8129 0 37.83 0 68.4063C0 98.983 25.0196 124 55.5993 124C86.1789 124 111.198 98.983 111.198 68.4063C111.198 57.2874 107.863 47.2809 102.302 38.3859L98.4103 42.8334L94.5184 47.2809L62.2711 87.8641C61.1591 88.9762 59.4913 90.0877 57.8229 90.0877C56.1551 90.0877 55.043 89.5319 53.931 88.4199L30.0236 62.8471C28.3556 61.1793 28.3556 58.3995 28.9116 56.7317C28.9116 56.1759 29.4675 55.6196 30.0236 55.0639C32.2475 52.8403 35.5834 52.8403 37.8074 55.0639L57.2671 76.1895L87.8467 37.83L91.1828 33.3825L94.5184 28.935L110.642 8.92129C113.422 6.69758 113.422 3.36198 110.642 1.13821Z" fill="#FEA30B"/>
</svg>
