<svg width="24" height="24" viewBox="0 0 24 24" fill="none" xmlns="http://www.w3.org/2000/svg">
<path fill-rule="evenodd" clip-rule="evenodd" d="M5 16.25C5.41421 16.25 5.75 16.5858 5.75 17V19C5.75 19.1381 5.86193 19.25 6 19.25H18C18.1381 19.25 18.25 19.1381 18.25 19V17C18.25 16.5858 18.5858 16.25 19 16.25C19.4142 16.25 19.75 16.5858 19.75 17V19C19.75 19.9665 18.9665 20.75 18 20.75H6C5.0335 20.75 4.25 19.9665 4.25 19V17C4.25 16.5858 4.58579 16.25 5 16.25Z" fill="white"/>
<path d="M10.738 3.75C10.2237 3.75 9.79453 4.14312 9.74961 4.65555C9.59597 6.40826 9.56887 8.16959 9.66844 9.92584C9.42145 9.93949 9.17456 9.95531 8.92779 9.9733L7.43828 10.0819C6.86398 10.1237 6.54294 10.7641 6.85299 11.2493C7.91503 12.9114 9.28349 14.3563 10.8855 15.5071L11.4822 15.9358C11.7917 16.1581 12.2086 16.1581 12.5181 15.9358L13.1148 15.5071C14.7168 14.3563 16.0852 12.9114 17.1473 11.2493C17.4573 10.7641 17.1363 10.1237 16.562 10.0819L15.0725 9.9733C14.8257 9.95531 14.5788 9.93949 14.3318 9.92584C14.4314 8.16959 14.4043 6.40826 14.2507 4.65554C14.2057 4.14312 13.7766 3.75 13.2623 3.75H10.738Z" fill="white"/>
</svg>
